# xmcd
#
# Track frame offsets:
#	150
#	12964
#	34243
#	59625
#	84377
#	109774
#	130558
#	158347
#	173940
#	195598
#	235052
#	253984
#	277129
#	282924
#
# Disc length: 3981 seconds
#
# Revision: 1
# Processed by: cddbd v1.5.1PL2 Copyright (c) Steve Scherf et al.
# Submitted via: EasyCDDAExtractor 9.0.0.1
#
DISCID=bf0f8b0e
DTITLE=Ozzy Osbourne - County Coliseum El Paso 21-06-81 Source 2
DYEAR=1981
DGENRE=Hard Rock
TTITLE0=Intro
TTITLE1=I Don't Know
TTITLE2=Crazy Train
TTITLE3=Believer
TTITLE4=Mr Crowley
TTITLE5=Flying High Again
TTITLE6=Revelation (Mother Earth)
TTITLE7=Steal Away (The Night)
TTITLE8=Tommy Aldridge Drum solo
TTITLE9=Suicide Solution - Randy Rhoades Solo
TTITLE10=Iron Man
TTITLE11=Children Of The Grave
TTITLE12=Encore Break
TTITLE13=Paranoid
EXTD=
EXTT0=
EXTT1=
EXTT2=
EXTT3=
EXTT4=
EXTT5=
EXTT6=
EXTT7=
EXTT8=
EXTT9=
EXTT10=
EXTT11=
EXTT12=
EXTT13=
PLAYORDER=
